<?xml version="1.0" encoding="utf-8"?>
<!-- Generator: Adobe Illustrator 27.5.0, SVG Export Plug-In . SVG Version: 6.00 Build 0)  -->
<svg version="1.1" xmlns="http://www.w3.org/2000/svg" xmlns:xlink="http://www.w3.org/1999/xlink" x="0px" y="0px"
	 viewBox="0 0 600 600" style="enable-background:new 0 0 600 600;" xml:space="preserve">
<g id="background">
	<rect style="fill:#FFFFFF;" width="600" height="600"/>
</g>
<g id="objects">
	<g>
		<g>
			<ellipse style="fill:#DBDBDB;" cx="300" cy="528.39" rx="104.588" ry="14.208"/>
		</g>
		<g>
			<polygon style="fill:#FDC10D;" points="397.58,184.652 310.15,320.172 378.86,298.542 200.76,514.182 271.31,369.752 
				210.67,388.542 284.62,256.252 221.42,276.742 399.24,57.402 345.95,204.012 350.05,202.472 350.06,202.472 			"/>
			<polygon style="fill:#EAA60F;" points="378.86,298.542 200.76,514.182 339.66,310.882 			"/>
			<polygon style="fill:#EAA60F;" points="397.58,184.652 310.15,320.172 362.25,197.902 			"/>
			<polygon style="fill:#EAA60F;" points="399.24,57.402 345.95,204.012 324.97,210.732 			"/>
			
				<rect x="256.436" y="201.947" transform="matrix(0.6242 -0.7812 0.7812 0.6242 -50.434 308.04)" style="fill:#FFE67D;" width="77.123" height="9"/>
			
				<rect x="216.968" y="322.161" transform="matrix(0.4982 -0.8671 0.8671 0.4982 -152.4804 389.8547)" style="fill:#FFE67D;" width="87.209" height="9.001"/>
		</g>
	</g>
</g>
</svg>
